<svg id="Group_14" data-name="Group 14" xmlns="http://www.w3.org/2000/svg" xmlns:xlink="http://www.w3.org/1999/xlink" width="60.696" height="70" viewBox="0 0 60.696 70">
  <defs>
    <clipPath id="clip-path">
      <rect id="Rectangle_33" data-name="Rectangle 33" width="60.696" height="70" fill="none"/>
    </clipPath>
  </defs>
  <g id="Group_13" data-name="Group 13" clip-path="url(#clip-path)">
    <path id="Path_48" data-name="Path 48" d="M42.764,128.73c.383.893.384.894-.478,1.341q-4.228,2.193-8.458,4.386a1.456,1.456,0,0,1-.832.23c-5.527-.484-11.055-.952-16.582-1.438a4.411,4.411,0,0,0-1.933.22c-3.2,1.146-6.415,2.257-9.623,3.384-.118.041-.283.011-.333.182H.014c0-5.216.007-10.433-.013-15.649,0-.525.115-.724.661-.662a11.656,11.656,0,0,0,6.26-1.181c2-.914,4.078-1.657,6.121-2.478.186-.075.367-.164.592-.265-.625-.681-1.245-1.3-1.807-1.978a15.323,15.323,0,0,1-3.724-8.41.548.548,0,0,0-.35-.5,3.056,3.056,0,0,1,.038-5.536.6.6,0,0,0,.345-.524,8.386,8.386,0,0,1,6.216-6.964c.354-.107.374-.334.421-.606A8.607,8.607,0,0,1,17.266,87.6c.429-.433.71-.446,1.008.09a1.646,1.646,0,0,0,.277.3c.57.543.382.927-.141,1.439a5.736,5.736,0,0,0-1.711,4.31c.007.632-.115.871-.824.951A6.09,6.09,0,0,0,10.9,98.039a3.55,3.55,0,0,0-.52,1.172c-.264.865-.264.866.62.866H55.712c.136,0,.274-.01.409,0,.323.029.41-.131.327-.411a4.684,4.684,0,0,0-.659-1.624,6.124,6.124,0,0,0-5.106-3.375c-.53-.057-.67-.225-.665-.74a6.311,6.311,0,0,0-1.682-4.486,6.447,6.447,0,0,0-7.8-1.364c-.923.474-.929.477-1.416-.468a6.457,6.457,0,0,0-11.708.341c-.239.524-.434.592-.93.3a5.961,5.961,0,0,0-4.852-.7c-.744.225-1.146.14-1.37-.6-.32-1.154-.321-1.159.93-1.449a8.2,8.2,0,0,1,4.512.174.622.622,0,0,0,.838-.263,8.472,8.472,0,0,1,13.626.008.586.586,0,0,0,.774.265,8.489,8.489,0,0,1,11,6.665c.067.367.228.457.543.559a8.347,8.347,0,0,1,6.049,6.875.751.751,0,0,0,.448.609,3.055,3.055,0,0,1,.02,5.482.64.64,0,0,0-.423.545,16.475,16.475,0,0,1-5.46,10.248,1.828,1.828,0,0,0-.184.2.56.56,0,0,0-.05.154,5.191,5.191,0,0,1,2.811,2.23,3.04,3.04,0,0,1-1.156,4.443c-3.028,1.61-6.087,3.16-9.122,4.757-.741.39-.561-.414-.856-.593-.035-.082-.065-.166-.105-.244-.4-.782-.4-.782.4-1.2l8.351-4.322c1.12-.58,1.247-1.268.412-2.208a3.092,3.092,0,0,0-3.977-.572q-7.5,3.888-14.994,7.795a1.434,1.434,0,0,1-1.278.082c-2.583-.935-5.178-1.837-7.764-2.766a1.865,1.865,0,0,0-1.061-.1c-1,.212-2.005.4-3.006.614-1.682.356-1.668.359-1.953-1.305-.06-.351.067-.434.355-.488.8-.149,1.607-.312,2.409-.472q5.149-1.024,10.3-2.052a2.119,2.119,0,0,0,1.724-2.083c0-.932-.552-1.516-1.648-1.786a6.562,6.562,0,0,0-1.971-.048c-2.932.167-5.866.309-8.794.526-2.2.164-4.475-.052-6.527,1.073a10.54,10.54,0,0,1-1.2.492L4.116,122.817c-.545-.011-1.09-.007-1.634-.038-.331-.019-.422.1-.421.425.01,3.8.006,7.6.008,11.4,0,.172-.054.4.241.378a6.6,6.6,0,0,0,1.815-.1c.174-.051.35-.093.521-.152q4.953-1.722,9.9-3.451a2.342,2.342,0,0,1,1-.144q8.435.712,16.87,1.418a1.8,1.8,0,0,0,1.041-.208q3.864-2.021,7.737-4.024c1.01-.524,1.011-.523,1.57.407M10.275,102.156a3.355,3.355,0,0,0-1.212-.038.988.988,0,0,0-1.019,1.038,1.013,1.013,0,0,0,1.04,1.03,3.632,3.632,0,0,0,1.215-.044c.136.011.272.03.407.03q23.3,0,46.591,0a2.416,2.416,0,0,0,.542-.043,1,1,0,0,0-.087-1.978,6.347,6.347,0,0,0-.75-.023q-22.988,0-45.975,0c-.25,0-.5.018-.75.027m6.575,13.356c.248-.027.5-.064.744-.08,2.772-.169,5.543-.341,8.316-.5,2.09-.118,4.181-.28,6.273-.3a4.019,4.019,0,0,1,4.128,2.926,4.273,4.273,0,0,1-.35,2.98,25.038,25.038,0,0,1,2.71.015,11.873,11.873,0,0,0,7.819-1.872,30.3,30.3,0,0,0,4.691-3,15.742,15.742,0,0,0,5.24-8.5c.2-.949.2-.95-.734-.95q-21.344,0-42.689,0c-.272,0-.543.024-.815.036-.294-.013-.587-.036-.881-.037-1.227,0-1.22,0-.949,1.24a15.283,15.283,0,0,0,4.687,7.807,1.238,1.238,0,0,0,1.811.235m12.274,7.98c1.562.557,3.053,1.086,4.54,1.622a.745.745,0,0,0,.638-.142c1.329-.688,2.658-1.374,3.98-2.074.111-.059.348-.053.285-.275a26.509,26.509,0,0,0-9.444.868" transform="translate(-0.001 -67.035)" fill="#050404"/>
    <path id="Path_49" data-name="Path 49" d="M237.081,0c.281.541.591,1.069.839,1.625a4.97,4.97,0,0,1,.034,4.166c-.19.437-.373.879-.6,1.3a4.021,4.021,0,0,0,.019,4.041c.263.474.121.636-.285.855-1.369.736-1.36.748-1.9-.7a5.744,5.744,0,0,1,.1-4.576c.123-.268.223-.549.371-.8a3.8,3.8,0,0,0-.114-4.416c-.2-.288-.116-.414.139-.581.432-.284.839-.6,1.256-.909Z" transform="translate(-191.958)" fill="#050505"/>
    <path id="Path_50" data-name="Path 50" d="M112.661,0a6.016,6.016,0,0,0,1.24.915c.206.15.342.253.142.53a3.929,3.929,0,0,0-.077,4.6,6.193,6.193,0,0,1,.028,6.137c-.2.4-.376.483-.753.225s-1-.4-1.169-.75c-.132-.274.277-.8.426-1.219a3.692,3.692,0,0,0-.061-2.793,7.443,7.443,0,0,0-.358-.809A5.881,5.881,0,0,1,112.524,0Z" transform="translate(-90.912)" fill="#050505"/>
    <path id="Path_51" data-name="Path 51" d="M22.566,278.282l10.127-4.019a10.578,10.578,0,0,0,1.2-.493c2.052-1.124,4.324-.909,6.527-1.073,2.928-.218,5.862-.359,8.794-.526a6.562,6.562,0,0,1,1.971.048c1.1.269,1.643.854,1.648,1.786a2.12,2.12,0,0,1-1.724,2.083q-5.147,1.034-10.3,2.052c-.8.16-1.6.322-2.409.472-.288.053-.416.136-.355.488.286,1.664.272,1.662,1.953,1.305,1-.212,2.005-.4,3.006-.614a1.868,1.868,0,0,1,1.061.1c2.585.93,5.18,1.831,7.764,2.767a1.435,1.435,0,0,0,1.278-.082q7.485-3.92,14.994-7.8a3.093,3.093,0,0,1,3.977.572c.834.94.707,1.628-.412,2.208l-8.351,4.322c-.806.417-.806.417-.4,1.2.04.079.071.163.105.244a4.766,4.766,0,0,0-1.8.869c-.56-.931-.56-.932-1.571-.407q-3.87,2.009-7.737,4.024a1.8,1.8,0,0,1-1.041.208Q42.432,287.3,34,286.6a2.338,2.338,0,0,0-1,.144q-4.948,1.735-9.9,3.451c-.171.059-.347.1-.521.152q0-6.033-.009-12.067" transform="translate(-18.451 -222.5)" fill="#f4d7ab"/>
    <path id="Path_52" data-name="Path 52" d="M59.785,107.309a6.09,6.09,0,0,1,4.974-3.349c.709-.08.831-.32.824-.951A5.736,5.736,0,0,1,67.294,98.7c.523-.512.711-.9.141-1.439a3.1,3.1,0,0,1,1.71-1.036c.223.739.625.824,1.369.6a5.96,5.96,0,0,1,4.852.7c.5.289.691.221.93-.3A6.457,6.457,0,0,1,88,96.881c.487.945.493.942,1.416.468a6.447,6.447,0,0,1,7.8,1.364A6.31,6.31,0,0,1,98.9,103.2c-.005.515.135.683.665.74a6.124,6.124,0,0,1,5.106,3.375c-.182,0-.364.013-.546.013H60.4c-.2,0-.409-.012-.614-.018m32.583-7.165c0-1.056,0-1.056-.792-1.056-1.262,0-1.262,0-1.262.789,0,1.269,0,1.269.859,1.269,1.194,0,1.194,0,1.194-1m2.047,1.939c0,1.114,0,1.114.81,1.115,1.243,0,1.243,0,1.243-.817,0-1.241,0-1.241-.81-1.242-1.243,0-1.243,0-1.243.944" transform="translate(-48.883 -76.305)" fill="#fbed8c"/>
    <path id="Path_53" data-name="Path 53" d="M73.261,28.53c.464.327.974.666,1.457,1.04.126.1-.038.243-.11.348a3.919,3.919,0,0,0-.09,4.482,6.243,6.243,0,0,1,.048,6.258c-.192.373-.334.458-.693.21-.39-.27-.971-.387-1.193-.742s.258-.794.4-1.207A3.858,3.858,0,0,0,72.992,36c-.283-.644-.606-1.272-.863-1.926a5.624,5.624,0,0,1,.83-5.363c.13-.2.15-.186.3-.176" transform="translate(-58.68 -23.324)" fill="#050505"/>
    <path id="Path_54" data-name="Path 54" d="M274.2,37.322a5.884,5.884,0,0,1,.874-2.948,4.239,4.239,0,0,0-.074-4.5c-.428-.769.8-.743,1.149-1.212.218-.293.393-.1.549.151a5.623,5.623,0,0,1,.488,5.871c-.122.243-.221.5-.352.736a4.146,4.146,0,0,0-.013,4.221c.192.351.2.574-.211.722a2.558,2.558,0,0,0-.361.188c-1.056.59-1.057.591-1.53-.558a6.355,6.355,0,0,1-.52-2.674" transform="translate(-224.197 -23.318)" fill="#040404"/>
    <path id="Path_55" data-name="Path 55" d="M66.8,214.979c.272-.013.543-.036.815-.036q21.344,0,42.689,0c.93,0,.932,0,.734.95a15.741,15.741,0,0,1-5.24,8.5,30.279,30.279,0,0,1-4.691,3,11.871,11.871,0,0,1-7.819,1.872,25.089,25.089,0,0,0-2.71-.015,4.274,4.274,0,0,0,.35-2.98,4.019,4.019,0,0,0-4.128-2.926c-2.092.025-4.183.186-6.273.3-2.772.157-5.544.33-8.316.5-.249.015-.5.053-.744.079-.5-.586-1.015-1.158-1.491-1.762a14.484,14.484,0,0,1-3.176-7.484" transform="translate(-54.622 -175.747)" fill="#fefefe"/>
    <path id="Path_56" data-name="Path 56" d="M55.47,192.479c.25-.009.5-.027.75-.027q22.988,0,45.976,0a6.344,6.344,0,0,1,.75.023,1,1,0,0,1,.087,1.978,2.415,2.415,0,0,1-.542.043q-23.295,0-46.59,0c-.136,0-.272-.02-.407-.03a2.5,2.5,0,0,1-.023-1.987" transform="translate(-45.196 -157.357)" fill="#fefefe"/>
    <path id="Path_57" data-name="Path 57" d="M56.767,170.026c.2.006.41.018.614.018h43.727c.182,0,.364-.008.546-.013a4.683,4.683,0,0,1,.659,1.623c.082.28,0,.439-.327.411-.135-.012-.273,0-.409,0H56.867c-.884,0-.884,0-.62-.866a3.546,3.546,0,0,1,.52-1.172" transform="translate(-45.865 -139.022)" fill="#f6d925"/>
    <path id="Path_58" data-name="Path 58" d="M13.349,305.73q0,6.033.009,12.067a6.6,6.6,0,0,1-1.815.1c-.3.022-.241-.207-.241-.379,0-3.8,0-7.6-.008-11.4,0-.324.091-.444.421-.425.544.031,1.089.027,1.634.038" transform="translate(-9.234 -249.948)" fill="#fdb881"/>
    <path id="Path_59" data-name="Path 59" d="M57.938,214.984a14.484,14.484,0,0,0,3.176,7.484c.476.6.993,1.175,1.491,1.762a1.237,1.237,0,0,1-1.81-.235,15.284,15.284,0,0,1-4.687-7.807c-.271-1.243-.278-1.244.949-1.24.294,0,.587.024.881.037" transform="translate(-45.756 -175.751)" fill="#b4e3f8"/>
    <path id="Path_60" data-name="Path 60" d="M159.713,305.423a26.509,26.509,0,0,1,9.444-.868c.062.221-.174.216-.285.275-1.323.7-2.652,1.386-3.98,2.074a.745.745,0,0,1-.638.142c-1.488-.537-2.978-1.065-4.54-1.622" transform="translate(-130.589 -248.965)" fill="#f3b17d"/>
    <path id="Path_61" data-name="Path 61" d="M46.336,192.272a2.5,2.5,0,0,0,.023,1.987,3.631,3.631,0,0,1-1.215.044,1.013,1.013,0,0,1-1.04-1.03.988.988,0,0,1,1.019-1.038,3.355,3.355,0,0,1,1.212.038" transform="translate(-36.062 -157.151)" fill="#a1b3bb"/>
    <path id="Path_62" data-name="Path 62" d="M229.263,126c0,1,0,1-1.194,1-.86,0-.86,0-.859-1.269,0-.79,0-.79,1.262-.789.792,0,.792,0,.792,1.056" transform="translate(-185.778 -102.16)" fill="#070604"/>
    <path id="Path_63" data-name="Path 63" d="M249.7,137.133c0-.945,0-.945,1.243-.944.811,0,.811,0,.81,1.242,0,.818,0,.818-1.243.817-.81,0-.81,0-.81-1.115" transform="translate(-204.166 -111.355)" fill="#070604"/>
  </g>
</svg>
