<svg xmlns="http://www.w3.org/2000/svg" xmlns:xlink="http://www.w3.org/1999/xlink" width="120" height="20.298" viewBox="0 0 120 20.298">
  <defs>
    <clipPath id="clip-path">
      <rect id="Rectangle_31" data-name="Rectangle 31" width="120" height="20.298" fill="#ef9e1f"/>
    </clipPath>
  </defs>
  <g id="Group_10" data-name="Group 10" transform="translate(0 0)">
    <g id="Group_9" data-name="Group 9" transform="translate(0 0)" clip-path="url(#clip-path)">
      <path id="Path_7" data-name="Path 7" d="M5.227,3.277a1.076,1.076,0,0,0-.62-.927,1.125,1.125,0,0,0-1.079.165,1.3,1.3,0,0,0-.517,1,1.663,1.663,0,0,0,.381,1.1,1.538,1.538,0,0,0,.982.544,1.866,1.866,0,0,0,1.113-.233A2.049,2.049,0,0,0,6.5,2.934,2.57,2.57,0,0,0,5.317.959,2.409,2.409,0,0,0,4.231.6,3.376,3.376,0,0,0,1.214,2.162,3.59,3.59,0,0,0,.722,4.487a3.665,3.665,0,0,0,.91,2.173A4.165,4.165,0,0,0,3.671,7.81c.194.053.4.082.593.124s.406.047.608.072.412.017.616.028.418.006.632,0l2.565-.012,10.263-.049,5.132-.024,5.132,0,10.263,0L60,7.94l20.526.085,10.263.042,5.131.024,5.132.043,10.263.089,2.565.022c.214,0,.43.006.632,0s.414,0,.616-.028.408-.037.608-.071.4-.072.594-.124a4.173,4.173,0,0,0,2.038-1.15,3.657,3.657,0,0,0,.91-2.173,3.59,3.59,0,0,0-.492-2.325A3.382,3.382,0,0,0,115.772.809a2.409,2.409,0,0,0-1.088.359A2.572,2.572,0,0,0,113.5,3.142a2.049,2.049,0,0,0,1.012,1.991,1.861,1.861,0,0,0,1.113.233,1.538,1.538,0,0,0,.982-.544,1.662,1.662,0,0,0,.381-1.1,1.3,1.3,0,0,0-.516-1,1.128,1.128,0,0,0-1.081-.165,1.078,1.078,0,0,0-.62.927.118.118,0,0,1-.123.114.12.12,0,0,1-.111-.124v0a1.344,1.344,0,0,1,.746-1.172,1.4,1.4,0,0,1,1.361.16,1.638,1.638,0,0,1,.685,1.248,2.047,2.047,0,0,1-.434,1.368,1.915,1.915,0,0,1-1.217.709,2.247,2.247,0,0,1-1.369-.254,2.454,2.454,0,0,1-1-1.007,2.6,2.6,0,0,1-.3-1.421A3.119,3.119,0,0,1,114.4.688a2.946,2.946,0,0,1,1.326-.469A3.874,3.874,0,0,1,117.1.36,3.978,3.978,0,0,1,119.327,2a4.316,4.316,0,0,1,.653,2.764,4.387,4.387,0,0,1-1.07,2.636,4.93,4.93,0,0,1-2.387,1.4c-.219.061-.44.1-.662.147s-.443.058-.665.088c-.44.037-.9.053-1.315.052l-2.565.012-10.263.049-5.132.024-5.131,0-10.263,0L60,9.184,39.475,9.1,29.212,9.056,24.08,9.033l-5.132-.045L8.685,8.9,6.12,8.878c-.42,0-.875-.016-1.315-.053-.223-.03-.444-.047-.665-.088s-.443-.085-.662-.148a4.924,4.924,0,0,1-2.387-1.4A4.387,4.387,0,0,1,.02,4.551,4.322,4.322,0,0,1,.674,1.787,3.972,3.972,0,0,1,2.9.152,3.9,3.9,0,0,1,4.276.01,2.962,2.962,0,0,1,5.6.48,3.119,3.119,0,0,1,6.986,2.9a2.6,2.6,0,0,1-.3,1.421,2.461,2.461,0,0,1-1,1.007,2.263,2.263,0,0,1-1.369.254A1.918,1.918,0,0,1,3.1,4.869,2.047,2.047,0,0,1,2.669,3.5a1.638,1.638,0,0,1,.685-1.248,1.4,1.4,0,0,1,1.361-.16A1.344,1.344,0,0,1,5.46,3.265h0a.117.117,0,1,1-.233.011" transform="translate(0 0)" fill="#ef9e1f"/>
      <path id="Path_8" data-name="Path 8" d="M104.664,15.145a1.094,1.094,0,0,0,.513.872,1.046,1.046,0,0,0,.978.014,1.277,1.277,0,0,0,.663-.764,1.587,1.587,0,0,0-1.722-2A1.979,1.979,0,0,0,103.53,14.5a2.449,2.449,0,0,0,.193,2.067,2.486,2.486,0,0,0,1.639,1.208,2.791,2.791,0,0,0,1.038,0,3.438,3.438,0,0,0,1-.339,3.308,3.308,0,0,0,1.458-1.505,3.789,3.789,0,0,0,.3-2.124,3.684,3.684,0,0,0-.812-1.954,3.876,3.876,0,0,0-1.757-1.135,7.2,7.2,0,0,0-2.149-.335l-9.172.045c-12.242.079-24.486.063-36.728.051l-18.365-.061L31,10.361l-9.182-.072L12.642,10.2a7.186,7.186,0,0,0-2.142.331,3.844,3.844,0,0,0-1.747,1.126A3.626,3.626,0,0,0,7.946,13.6a3.755,3.755,0,0,0,.3,2.109,3.288,3.288,0,0,0,1.445,1.5,3.371,3.371,0,0,0,1.519.389,2.389,2.389,0,0,0,2.135-1.241,2.44,2.44,0,0,0,.2-2.053,1.968,1.968,0,0,0-1.556-1.233,1.581,1.581,0,0,0-1.715,1.989,1.272,1.272,0,0,0,.658.762,1.044,1.044,0,0,0,.976-.012,1.09,1.09,0,0,0,.514-.87.118.118,0,0,1,.124-.113.121.121,0,0,1,.109.125,1.358,1.358,0,0,1-.61,1.1,1.179,1.179,0,0,1-.615.185,1.488,1.488,0,0,1-.62-.122,1.6,1.6,0,0,1-.862-.936,1.707,1.707,0,0,1-.094-.658,2.019,2.019,0,0,1,.949-1.633,1.909,1.909,0,0,1,.6-.241,2.174,2.174,0,0,1,.635-.029,2.429,2.429,0,0,1,1.96,1.484,2.675,2.675,0,0,1,.195,1.3,3.146,3.146,0,0,1-.368,1.243,3.051,3.051,0,0,1-1.979,1.526,3.113,3.113,0,0,1-.633.073,3.929,3.929,0,0,1-.618-.043A4.094,4.094,0,0,1,9.4,17.823a3.985,3.985,0,0,1-1.792-1.774,4.17,4.17,0,0,1-.39-1.245,5.388,5.388,0,0,1-.02-1.29,4.459,4.459,0,0,1,.961-2.386,4.358,4.358,0,0,1,.959-.853,5.226,5.226,0,0,1,1.123-.545,7.979,7.979,0,0,1,2.377-.41l9.193-.055L31,9.234l9.181-.016,18.365.023c12.242.043,24.486.083,36.728.218l9.192.1a7.951,7.951,0,0,1,2.369.406,5.219,5.219,0,0,1,1.119.543,4.194,4.194,0,0,1,1.911,3.221,5.4,5.4,0,0,1-.023,1.284,4.149,4.149,0,0,1-.391,1.236,3.957,3.957,0,0,1-1.777,1.764,4.086,4.086,0,0,1-1.18.372,4.031,4.031,0,0,1-.615.043,2.955,2.955,0,0,1-2.6-1.585,3.118,3.118,0,0,1-.368-1.236,2.675,2.675,0,0,1,.191-1.289,2.421,2.421,0,0,1,1.949-1.479,2.156,2.156,0,0,1,.633.028,1.9,1.9,0,0,1,.593.239,2.013,2.013,0,0,1,.946,1.624,1.691,1.691,0,0,1-.093.656,1.589,1.589,0,0,1-.856.934,1.507,1.507,0,0,1-.618.124,1.2,1.2,0,0,1-.614-.184,1.36,1.36,0,0,1-.611-1.1.12.12,0,0,1,.113-.125.118.118,0,0,1,.12.113" transform="translate(1.458 1.874)" fill="#ef9e1f"/>
      <path id="Path_9" data-name="Path 9" d="M6.556,4.035c4.344-.059,8.688-.079,13.032-.12l13.031-.058c4.344-.028,8.688-.012,13.032-.017H58.681l13.031.053c4.344.023,8.688.024,13.032.069l13.032.11c4.344.059,8.688.1,13.032.173a.072.072,0,0,1,.069.073.071.071,0,0,1-.069.072c-4.344.059-8.688.079-13.032.122l-13.032.057c-4.344.028-8.688.012-13.032.017H58.681L45.65,4.532c-4.344-.023-8.688-.024-13.032-.069L19.587,4.354c-4.344-.059-8.688-.1-13.032-.173a.073.073,0,0,1,0-.146" transform="translate(1.319 0.781)" fill="#ef9e1f"/>
      <path id="Path_10" data-name="Path 10" d="M17.047,12.726c3.28-.059,6.56-.079,9.841-.12l9.841-.058c3.28-.028,6.56-.012,9.841-.017h9.841l9.839.053c3.28.023,6.56.024,9.841.069l9.841.11c3.28.059,6.56.1,9.841.173a.073.073,0,0,1,0,.146c-3.28.059-6.56.081-9.841.122l-9.841.058c-3.28.026-6.56.011-9.841.016H56.409l-9.841-.053c-3.28-.023-6.56-.024-9.841-.069l-9.841-.109c-3.28-.059-6.56-.1-9.841-.173a.073.073,0,0,1,0-.146" transform="translate(3.452 2.548)" fill="#ef9e1f"/>
      <path id="Path_11" data-name="Path 11" d="M96.736,3.623a.774.774,0,1,1-.773-.8.789.789,0,0,1,.773.8" transform="translate(19.352 0.573)" fill="#ef9e1f"/>
      <path id="Path_12" data-name="Path 12" d="M89.527,14.3a.774.774,0,1,1-.774-.8.788.788,0,0,1,.774.8" transform="translate(17.886 2.744)" fill="#ef9e1f"/>
      <path id="Path_13" data-name="Path 13" d="M4.81,3.416a.774.774,0,1,1-.773-.8.789.789,0,0,1,.773.8" transform="translate(0.664 0.531)" fill="#ef9e1f"/>
      <path id="Path_14" data-name="Path 14" d="M12.02,14.032a.774.774,0,1,1-.773-.8.789.789,0,0,1,.773.8" transform="translate(2.129 2.69)" fill="#ef9e1f"/>
    </g>
  </g>
</svg>
