<svg id="Group_18" data-name="Group 18" xmlns="http://www.w3.org/2000/svg" xmlns:xlink="http://www.w3.org/1999/xlink" width="65" height="60.865" viewBox="0 0 65 60.865">
  <defs>
    <clipPath id="clip-path">
      <rect id="Rectangle_35" data-name="Rectangle 35" width="65" height="60.865" fill="none"/>
    </clipPath>
  </defs>
  <g id="Group_17" data-name="Group 17" clip-path="url(#clip-path)">
    <path id="Path_94" data-name="Path 94" d="M20.579,20.706a22.982,22.982,0,0,1-5.244-.405,19.241,19.241,0,0,1-4.5-1.873c0,.754.008,1.417,0,2.079-.012.843-.408,1.258-1.238,1.261q-4.163.013-8.326,0A1.1,1.1,0,0,1,0,20.532Q0,10.921,0,1.31A1.089,1.089,0,0,1,1.235.11q4.2-.014,8.393,0a1.094,1.094,0,0,1,1.2,1.229c.011.562,0,1.125,0,1.735,3.55-.841,7.055-1.659,10.553-2.5a16.372,16.372,0,0,1,10.909.785,31.877,31.877,0,0,1,4.784,3.162q1.973,1.365,3.9,2.792a1.848,1.848,0,0,0,1.173.386Q49.6,7.677,57.045,7.69a3.285,3.285,0,0,1,3.619,3.593q0,9.408,0,18.816A3.281,3.281,0,0,1,57.1,33.685q-17.024,0-34.047,0A3.288,3.288,0,0,1,19.5,30.094q0-2.91,0-5.821c0-.952.172-1.174,1.081-1.428.911.259,1.083.481,1.085,1.432,0,1.918,0,3.835,0,5.753,0,1.162.323,1.489,1.48,1.489q16.922,0,33.844,0c1.2,0,1.506-.312,1.506-1.53q0-9.306,0-18.613c0-1.216-.3-1.519-1.513-1.519H23.208c-1.248,0-1.519.309-1.556,1.56-.016.532.161.625.645.617,1.737-.029,3.476.028,5.211-.024A5.212,5.212,0,0,1,31.1,13.127c.041.053.079.109.124.158a4.165,4.165,0,0,1,.89,4.805,4.243,4.243,0,0,1-4.221,2.594c-.992,0-1.984.014-2.977.022H20.579M37.784,7.689c-1.546-1.108-2.941-2.085-4.31-3.1a12.5,12.5,0,0,0-9.941-2.208c-4.144.726-8.2,1.882-12.305,2.812-.362.082-.4.245-.4.545q.01,4.838,0,9.677a.652.652,0,0,0,.314.613,12.553,12.553,0,0,0,6.631,2.45c3.494.1,6.992.042,10.489.029A2.065,2.065,0,0,0,30.2,17.09a2.153,2.153,0,0,0-2.136-2.9c-2.436-.013-4.873,0-7.309-.007a1.105,1.105,0,0,1-1.258-1.24c-.01-.541,0-1.083,0-1.624A3.3,3.3,0,0,1,23.15,7.69H37.784M8.669,11.008c0-2.729-.01-5.459.01-8.188,0-.437-.1-.564-.552-.558q-2.706.04-5.414,0c-.44-.006-.557.11-.556.554q.024,8.12,0,16.241c0,.437.1.564.552.558q2.706-.04,5.414,0c.44.006.559-.11.556-.554-.021-2.684-.011-5.369-.011-8.053" transform="translate(0 0)" fill="#010101"/>
    <path id="Path_95" data-name="Path 95" d="M91.989,236.854l2.2.551a4.418,4.418,0,0,0,4.772,3.524h9.2a1.025,1.025,0,0,0,1.033-.615,1.076,1.076,0,0,0-.123-1.148,1.21,1.21,0,0,0-1.091-.407c-3.113,0-6.226,0-9.339.006a2.285,2.285,0,0,1-1.619-.554,2.18,2.18,0,0,1-.573-2.412,2.14,2.14,0,0,1,2.063-1.366c3.745-.008,7.49.037,11.234-.016A13.546,13.546,0,0,1,117.5,236.8a.91.91,0,0,1,.48.867q-.029,4.7,0,9.405c0,.453-.133.607-.565.7-3.039.638-6.071,1.317-9.11,1.959a30.217,30.217,0,0,1-5.985,1,12.646,12.646,0,0,1-7.114-1.745q-7.951-5.062-15.877-10.161a3.088,3.088,0,0,1-1.087-.992,2.045,2.045,0,0,1-.139-2.118,1.934,1.934,0,0,1,1.858-1,5.122,5.122,0,0,1,1.4.228c2.991.832,5.987,1.647,8.971,2.5a1.241,1.241,0,0,0,1.655-.588" transform="translate(-63.81 -192.077)" fill="#fbd4a5"/>
    <path id="Path_96" data-name="Path 96" d="M82.1,222.137a1.241,1.241,0,0,1-1.655.588c-2.984-.856-5.98-1.671-8.971-2.5a5.116,5.116,0,0,0-1.4-.229,1.934,1.934,0,0,0-1.858,1,2.044,2.044,0,0,0,.139,2.118,3.085,3.085,0,0,0,1.087.992q7.938,5.081,15.877,10.161a12.644,12.644,0,0,0,7.114,1.745,30.228,30.228,0,0,0,5.985-1c3.039-.642,6.07-1.32,9.11-1.959.432-.091.569-.244.565-.7q-.035-4.7,0-9.405a.91.91,0,0,0-.48-.867,13.547,13.547,0,0,0-7.752-2.382c-3.744.053-7.489.009-11.233.016a2.141,2.141,0,0,0-2.063,1.366,2.18,2.18,0,0,0,.573,2.412,2.285,2.285,0,0,0,1.619.554c3.113-.008,6.226,0,9.339-.006a1.209,1.209,0,0,1,1.091.407,1.076,1.076,0,0,1,.123,1.148,1.025,1.025,0,0,1-1.033.615h-9.2a4.418,4.418,0,0,1-4.772-3.524c-.263-3.134,1.579-5.142,4.718-5.143,3.611,0,7.222.037,10.832-.012a15.3,15.3,0,0,1,7.694,1.97c.148.081.277.236.538.186,0-.64,0-1.286,0-1.932.008-.9.386-1.3,1.263-1.3q4.164-.011,8.327,0a1.1,1.1,0,0,1,1.241,1.252q.007,9.579,0,19.158a1.1,1.1,0,0,1-1.24,1.254q-4.164.012-8.327,0c-.874,0-1.253-.4-1.264-1.3-.007-.519-.009-1.037-.014-1.556a.659.659,0,0,0-.037-.118c-2.164.469-4.328.966-6.505,1.4a69.472,69.472,0,0,1-8.347,1.622,14.8,14.8,0,0,1-9.46-2.335c-5.174-3.364-10.389-6.664-15.582-10a4.543,4.543,0,0,1-2.254-4.693,4.159,4.159,0,0,1,4.859-3.278,30.583,30.583,0,0,1,3.988,1.014q3.123.864,6.24,1.744c1.036.291,1.161.465,1.127,1.509m34.652,5.164c0-2.708,0-5.416.006-8.124,0-.364-.02-.568-.49-.56-1.85.03-3.7.024-5.552,0-.41,0-.471.152-.47.51q.014,8.157,0,16.315c0,.421.111.529.527.524,1.783-.023,3.566-.037,5.348.006.57.014.647-.191.643-.685-.021-2.663-.01-5.325-.01-7.988" transform="translate(-53.918 -177.361)" fill="#020202"/>
    <path id="Path_97" data-name="Path 97" d="M124.462,57.841a5.212,5.212,0,0,0-3.589-1.118c-1.736.052-3.475-.005-5.211.024-.485.008-.661-.085-.646-.617.037-1.251.308-1.56,1.556-1.56h33.777c1.211,0,1.513.3,1.513,1.519q0,9.306,0,18.613c0,1.219-.305,1.53-1.506,1.53q-16.922,0-33.845,0c-1.157,0-1.48-.327-1.48-1.489q0-2.877,0-5.753c0-.951-.174-1.173-1.085-1.432q0-1.07,0-2.139h4.335v2.123c-.869.217-1.074.473-1.081,1.356,0,.2,0,.406,0,.609.013.873.334,1.226,1.191,1.312a2.145,2.145,0,0,1,2.052,2.046c.09.86.442,1.2,1.305,1.2q11.7.006,23.407,0c.859,0,1.207-.342,1.3-1.208a2.164,2.164,0,0,1,2-2.034c.952-.1,1.247-.427,1.249-1.393q0-4.025,0-8.05c0-.974-.293-1.3-1.238-1.4a2.17,2.17,0,0,1-2.006-2.025c-.092-.877-.433-1.214-1.288-1.214q-8.49-.007-16.98,0c-.815,0-1.1.253-1.281,1.078l-2.439.025" transform="translate(-93.364 -44.715)" fill="#5cd29d"/>
    <path id="Path_98" data-name="Path 98" d="M137.945,82.271q0-1.061,0-2.123c.992-.008,1.985-.024,2.977-.022a4.243,4.243,0,0,0,4.221-2.594,4.165,4.165,0,0,0-.89-4.805c-.045-.049-.083-.105-.124-.158l2.44-.025c.2.865.465,1.085,1.347,1.085q7.779,0,15.557,0c.309,0,.6-.057.745.369a4.1,4.1,0,0,0,2.625,2.629.483.483,0,0,1,.361.546q-.019,2.976,0,5.951a.435.435,0,0,1-.329.5,4.167,4.167,0,0,0-2.64,2.618.53.53,0,0,1-.594.394q-10.518-.011-21.035,0c-.308,0-.483-.067-.592-.389a4.112,4.112,0,0,0-2.573-2.594c-.212-.081-.392-.137-.433-.432a1.043,1.043,0,0,0-1.059-.947m19.5-2.106a4.333,4.333,0,1,0-4.39,4.293,4.35,4.35,0,0,0,4.39-4.293" transform="translate(-113.031 -59.441)" fill="#54bf8f"/>
    <path id="Path_99" data-name="Path 99" d="M86.9,17.472H72.264a3.3,3.3,0,0,0-3.65,3.632c0,.541-.008,1.083,0,1.624a1.105,1.105,0,0,0,1.258,1.24c2.436.008,4.873-.006,7.309.007a2.153,2.153,0,0,1,2.136,2.9,2.064,2.064,0,0,1-1.945,1.422c-3.5.012-7,.071-10.489-.029a12.552,12.552,0,0,1-6.632-2.45.652.652,0,0,1-.313-.613q.015-4.838,0-9.677c0-.3.037-.463.4-.545,4.1-.93,8.161-2.086,12.305-2.812a12.5,12.5,0,0,1,9.941,2.207c1.369,1.011,2.764,1.987,4.31,3.1" transform="translate(-49.114 -9.782)" fill="#fbd3a5"/>
    <path id="Path_100" data-name="Path 100" d="M18.459,21.272c0,2.684-.011,5.369.011,8.053,0,.444-.115.56-.556.554q-2.707-.038-5.414,0c-.447.007-.553-.12-.552-.558q.023-8.12,0-16.241c0-.444.116-.56.556-.554q2.706.038,5.414,0c.447-.007.555.121.552.558-.02,2.729-.01,5.459-.01,8.188" transform="translate(-9.79 -10.263)" fill="#dae8ed"/>
    <path id="Path_101" data-name="Path 101" d="M318.357,237.114c0,2.663-.011,5.326.01,7.988,0,.494-.074.7-.643.685-1.782-.043-3.566-.029-5.348-.006-.416.005-.528-.1-.527-.524q.022-8.158,0-16.315c0-.358.06-.515.47-.51,1.85.022,3.7.027,5.552,0,.47-.008.491.2.49.56-.011,2.708-.006,5.416-.006,8.124" transform="translate(-255.526 -187.173)" fill="#fe6a6a"/>
    <path id="Path_102" data-name="Path 102" d="M133.034,77.367a1.044,1.044,0,0,1,1.059.947c.041.295.221.351.433.432A4.113,4.113,0,0,1,137.1,81.34c.109.322.284.39.592.389q10.518-.01,21.035,0a.53.53,0,0,0,.594-.394,4.167,4.167,0,0,1,2.64-2.618.435.435,0,0,0,.329-.5q-.014-2.976,0-5.952a.483.483,0,0,0-.362-.546,4.1,4.1,0,0,1-2.624-2.629c-.148-.426-.436-.369-.744-.369q-7.779,0-15.557,0c-.882,0-1.146-.22-1.347-1.085.182-.825.467-1.078,1.281-1.078q8.49-.005,16.98,0c.855,0,1.2.337,1.288,1.214a2.17,2.17,0,0,0,2.006,2.025c.945.1,1.236.428,1.238,1.4q0,4.025,0,8.05c0,.966-.3,1.289-1.249,1.393a2.164,2.164,0,0,0-2,2.034c-.09.867-.439,1.208-1.3,1.208q-11.7.007-23.407,0c-.864,0-1.215-.339-1.305-1.2a2.145,2.145,0,0,0-2.052-2.046c-.857-.086-1.178-.439-1.191-1.312,0-.2,0-.406,0-.609.007-.882.212-1.138,1.081-1.356" transform="translate(-108.12 -54.537)" fill="#000101"/>
    <path id="Path_103" data-name="Path 103" d="M206.6,94.935a4.333,4.333,0,1,1-4.312-4.366,4.365,4.365,0,0,1,4.312,4.366m-4.3-2.2a2.162,2.162,0,1,0,2.135,2.157,2.153,2.153,0,0,0-2.135-2.157" transform="translate(-162.188 -74.211)" fill="#010302"/>
    <path id="Path_104" data-name="Path 104" d="M212.13,102.565a2.162,2.162,0,1,1-2.2,2.094,2.155,2.155,0,0,1,2.2-2.094" transform="translate(-172.017 -84.041)" fill="#5bce9b"/>
  </g>
</svg>
